<svg width="150" height="132" viewBox="0 0 150 132" version="1.1" xmlns="http://www.w3.org/2000/svg" xmlns:xlink="http://www.w3.org/1999/xlink">
<title>02</title>
<desc>Created using Figma</desc>
<g id="Canvas" transform="translate(-4817 -456)">
<g id="02">
<g id="Rectangle 18">
<use xlink:href="#path0_fill" transform="translate(4817 456)" fill="#F6F6F6"/>
</g>
<g id="Rectangle 2">
<use xlink:href="#path1_fill" transform="translate(4838 495.154)" fill="#DFE3EE"/>
</g>
<g id="Rectangle 2 (Stroke)">
<use xlink:href="#path2_fill" transform="translate(4837 494.154)" fill="#555555"/>
</g>
<g id="Ellipse 4">
<use xlink:href="#path3_fill" transform="matrix(-0.965926 0.258819 0.258819 0.965926 4922.02 502.204)" fill="#FFFFFF"/>
</g>
<g id="Ellipse 4 (Stroke)">
<use xlink:href="#path4_fill" transform="matrix(-0.965926 0.258819 0.258819 0.965926 4922.02 502.204)" fill="#3B5998"/>
</g>
<g id="Rectangle 11">
<use xlink:href="#path5_fill" transform="matrix(0.258819 0.965926 0.965926 -0.258819 4832.08 502.67)" fill="#FFFFFF"/>
</g>
<g id="Rectangle 11 (Stroke)">
<use xlink:href="#path6_fill" transform="matrix(0.258819 0.965926 0.965926 -0.258819 4832.08 502.67)" fill="#3B5998"/>
</g>
<g id="Rectangle 11">
<use xlink:href="#path7_fill" transform="matrix(-0.903405 0.428787 0.428787 0.903405 4865.53 532.872)" fill="#3B5998"/>
</g>
<g id="Rectangle 11 (Stroke)">
<use xlink:href="#path8_fill" transform="matrix(-0.903405 0.428787 0.428787 0.903405 4865.53 532.872)" fill="#3B5998"/>
</g>
<g id="Rectangle 11">
<use xlink:href="#path9_fill" transform="matrix(-0.965926 0.258819 0.258819 0.965926 4871.61 534.959)" fill="#8B9DC3"/>
</g>
<g id="Rectangle 11 (Stroke)">
<use xlink:href="#path10_fill" transform="matrix(-0.965926 0.258819 0.258819 0.965926 4871.61 534.959)" fill="#3B5998"/>
</g>
<g id="Rectangle 11">
<use xlink:href="#path11_fill" transform="matrix(-0.965926 0.258819 0.258819 0.965926 4866.45 515.025)" fill="#3B5998"/>
</g>
<g id="Rectangle 11 (Stroke)">
<use xlink:href="#path12_fill" transform="matrix(-0.965926 0.258819 0.258819 0.965926 4866.45 515.025)" fill="#3B5998"/>
</g>
<g id="Rectangle 11">
<use xlink:href="#path13_fill" transform="matrix(-0.965926 0.258819 0.258819 0.965926 4895.83 493.298)" fill="#8B9DC3"/>
</g>
<g id="Rectangle 11 (Stroke)">
<use xlink:href="#path14_fill" transform="matrix(-0.965926 0.258819 0.258819 0.965926 4895.83 493.298)" fill="#3B5998"/>
</g>
<g id="Vector 6 (Stroke)">
<use xlink:href="#path15_fill" transform="matrix(0.965926 -0.258819 0.258819 0.965926 4937.69 505.814)" fill="#3B5998"/>
</g>
<g id="Vector 6 (Stroke)">
<use xlink:href="#path16_fill" transform="matrix(0.759488 -0.650521 0.667832 0.744312 4931.58 496.513)" fill="#3B5998"/>
</g>
<g id="Vector 6 (Stroke)">
<use xlink:href="#path17_fill" transform="matrix(0.96908 0.246746 -0.271028 0.962571 4939.13 516.576)" fill="#3B5998"/>
</g>
<g id="Vector 6 (Stroke)">
<use xlink:href="#path18_fill" transform="matrix(0.525859 -0.850572 0.880693 0.473687 4922.19 489.176)" fill="#3B5998"/>
</g>
<g id="Vector 6 (Stroke)">
<use xlink:href="#path19_fill" transform="matrix(0.880693 0.473687 -0.525859 0.850572 4935.21 525.291)" fill="#3B5998"/>
</g>
</g>
</g>
<defs>
<path id="path0_fill" d="M 0 0L 150 0L 150 132L 0 132L 0 0Z"/>
<path id="path1_fill" d="M 0 2C 0 0.89543 0.89543 0 2 0L 101.134 0C 102.239 0 103.134 0.89543 103.134 2L 103.134 64.0335C 103.134 65.1381 102.239 66.0335 101.134 66.0335L 2 66.0335C 0.89543 66.0335 0 65.1381 0 64.0335L 0 2Z"/>
<path id="path2_fill" fill-rule="evenodd" d="M 0 3C 0 1.34315 1.34315 0 3 0L 102.134 0C 103.791 0 105.134 1.34315 105.134 3L 105.134 65.0335C 105.134 66.6904 103.791 68.0335 102.134 68.0335L 3 68.0335C 1.34315 68.0335 0 66.6904 0 65.0335L 0 3ZM 3 2C 2.44772 2 2 2.44772 2 3L 2 65.0335C 2 65.5858 2.44772 66.0335 3 66.0335L 102.134 66.0335C 102.687 66.0335 103.134 65.5858 103.134 65.0335L 103.134 3C 103.134 2.44772 102.687 2 102.134 2L 3 2Z"/>
<path id="path3_fill" d="M 19 9.5C 19 14.7467 14.7467 19 9.5 19C 4.25329 19 0 14.7467 0 9.5C 0 4.25329 4.25329 0 9.5 0C 14.7467 0 19 4.25329 19 9.5Z"/>
<path id="path4_fill" fill-rule="evenodd" d="M 9.5 17C 13.6421 17 17 13.6421 17 9.5C 17 5.35786 13.6421 2 9.5 2C 5.35786 2 2 5.35786 2 9.5C 2 13.6421 5.35786 17 9.5 17ZM 9.5 19C 14.7467 19 19 14.7467 19 9.5C 19 4.25329 14.7467 0 9.5 0C 4.25329 0 0 4.25329 0 9.5C 0 14.7467 4.25329 19 9.5 19Z"/>
<path id="path5_fill" d="M 64.9278 74.0983C 57.6163 61.8051 44.5205 37.6351 42.7568 19.5516C 42.4753 16.6653 42.4071 13.1605 42.4309 9.91987C 42.4705 4.54036 38.2096 0 32.83 0C 27.4503 0 23.1895 4.54036 23.2291 9.91987C 23.2529 13.1605 23.1847 16.6653 22.9032 19.5516C 21.1395 37.6351 8.04368 61.8051 0.732125 74.0983C -1.30554 77.5243 1.15033 82 5.13652 82L 60.5235 82C 64.5096 82 66.9655 77.5243 64.9278 74.0983Z"/>
<path id="path6_fill" fill-rule="evenodd" d="M 49.9367 49.814C 45.496 39.898 41.6859 29.0253 40.7663 19.7457C 40.4787 16.7819 40.4071 13.1727 40.431 9.90516C 40.4628 5.56931 37.0338 2 32.83 2C 28.6261 2 25.1971 5.56931 25.229 9.90516C 25.2529 13.1727 25.1813 16.7819 24.8937 19.7457C 23.9741 29.0253 20.164 39.898 15.7233 49.814C 11.2767 59.734 6.12015 68.9513 2.45107 75.1207C 1.17587 77.2647 2.76068 80 5.13652 80L 60.5235 80C 62.8993 80 64.4841 77.2647 63.2089 75.1207C 59.5398 68.9513 54.3832 59.734 49.9367 49.814ZM 42.7568 19.5516C 44.5205 37.6351 57.6163 61.8051 64.9278 74.0983C 66.9655 77.5243 64.5096 82 60.5235 82L 5.13652 82C 1.15033 82 -1.30554 77.5243 0.732125 74.0983C 8.04368 61.8051 21.1395 37.6351 22.9032 19.5516C 23.1847 16.6653 23.2529 13.1605 23.2291 9.91987C 23.1895 4.54036 27.4503 0 32.83 0C 38.2096 0 42.4705 4.54036 42.4309 9.91987C 42.4071 13.1605 42.4753 16.6653 42.7568 19.5516Z"/>
<path id="path7_fill" d="M 0 1C 0 0.447715 0.447715 0 1 0L 7 0C 7.55228 0 8 0.447715 8 1L 8 15C 8 15.5523 7.55228 16 7 16L 1 16C 0.447715 16 0 15.5523 0 15L 0 1Z"/>
<path id="path8_fill" fill-rule="evenodd" d="M 2 2L 2 14L 6 14L 6 2L 2 2ZM 1 0C 0.447715 0 0 0.447715 0 1L 0 15C 0 15.5523 0.447715 16 1 16L 7 16C 7.55228 16 8 15.5523 8 15L 8 1C 8 0.447715 7.55228 0 7 0L 1 0Z"/>
<path id="path9_fill" d="M 0.61948 0.568819C -0.152173 0.442504 -0.232928 0.142127 0.547134 0.0882057C 4.46439 -0.18257 13.8845 0.242831 16.8889 0.390712C 17.4197 0.416842 17.8264 0.854713 17.8264 1.38621L 17.8264 31C 17.8264 31.5523 17.3787 32 16.8264 32L 6.13173 32C 5.45485 32 4.96598 31.3453 5.15044 30.6941C 6.76504 24.9936 12.3569 2.49017 0.61948 0.568819Z"/>
<path id="path10_fill" fill-rule="evenodd" d="M 1.90576 0.882261C 2.70475 1.14727 3.40685 1.52461 4.02164 1.99748C 11.12 7.45721 6.57883 25.6511 5.15044 30.6941C 4.96598 31.3453 5.45485 32 6.13173 32L 16.8264 32C 17.3787 32 17.8264 31.5523 17.8264 31L 17.8264 1.38621C 17.8264 0.854713 17.4197 0.416842 16.8889 0.390712C 14.6913 0.282544 9.06117 0.0258948 4.66274 0.00181943C 3.69258 -0.00349088 2.78234 0.00251375 1.98208 0.0239224C 1.51362 0.0364548 1.08284 0.0542657 0.699796 0.0781755C 0.648029 0.0814068 0.597133 0.0847495 0.547134 0.0882057C -0.219377 0.14119 -0.154719 0.432142 0.57989 0.562081C 0.592877 0.564378 0.606075 0.566625 0.61948 0.568819C 1.07379 0.643187 1.50214 0.74839 1.90576 0.882261ZM 6.87132 2.02797C 7.45521 2.76514 7.93943 3.58819 8.3328 4.47022C 9.6092 7.33222 9.96026 10.847 9.89156 14.2546C 9.75945 20.2329 8.31499 26.5921 7.41361 30L 15.8264 30L 15.8264 2.34198C 13.7094 2.24271 10.1615 2.09201 6.87132 2.02797Z"/>
<path id="path11_fill" d="M 0 1C 0 0.447715 0.447715 0 1 0L 19 0C 19.5523 0 20 0.447715 20 1L 20 22C 20 22.5523 19.5523 23 19 23L 1 23C 0.447715 23 0 22.5523 0 22L 0 1Z"/>
<path id="path12_fill" fill-rule="evenodd" d="M 2 2L 2 21L 18 21L 18 2L 2 2ZM 1 0C 0.447715 0 0 0.447715 0 1L 0 22C 0 22.5523 0.447715 23 1 23L 19 23C 19.5523 23 20 22.5523 20 22L 20 1C 20 0.447715 19.5523 0 19 0L 1 0Z"/>
<path id="path13_fill" d="M 0 1.00129C 0 0.257908 0.782313 -0.225587 1.44721 0.106863L 9.44721 4.10686C 9.786 4.27626 10 4.62252 10 5.00129L 10 45.792C 10 46.1567 9.80147 46.4925 9.48192 46.6682L 1.48192 51.0682C 0.815466 51.4347 0 50.9526 0 50.192L 0 1.00129Z"/>
<path id="path14_fill" fill-rule="evenodd" d="M 2 2.61932L 2 48.5007L 8 45.2007L 8 5.61932L 2 2.61932ZM 1.44721 0.106863C 0.782313 -0.225588 0 0.257908 0 1.00129L 0 50.192C 0 50.9526 0.815466 51.4347 1.48192 51.0682L 9.48192 46.6682C 9.80147 46.4924 10 46.1567 10 45.792L 10 5.00129C 10 4.62252 9.786 4.27626 9.44721 4.10686L 1.44721 0.106863Z"/>
<path id="path15_fill" fill-rule="evenodd" d="M 0 2C 0 0.89543 0.89543 0 2 0L 15.2424 0C 16.347 0 17.2424 0.89543 17.2424 2C 17.2424 3.10457 16.347 4 15.2424 4L 2 4C 0.89543 4 0 3.10457 0 2Z"/>
<path id="path16_fill" fill-rule="evenodd" d="M 0 2C 0 0.89543 0.89543 0 2 0L 9.62428 0C 10.7289 0 11.6243 0.89543 11.6243 2C 11.6243 3.10457 10.7289 4 9.62428 4L 2 4C 0.89543 4 0 3.10457 0 2Z"/>
<path id="path17_fill" fill-rule="evenodd" d="M 0 2C 0 0.89543 0.89543 0 2 0L 9.6124 0C 10.717 0 11.6124 0.89543 11.6124 2C 11.6124 3.10457 10.717 4 9.6124 4L 2 4C 0.89543 4 0 3.10457 0 2Z"/>
<path id="path18_fill" fill-rule="evenodd" d="M 0.00116109 1.93253C 0.0384339 0.828593 0.96357 -0.0361117 2.06751 0.00116109L 11.3953 0.316098C 12.4992 0.353371 13.3639 1.27851 13.3266 2.38245C 13.2894 3.48639 12.3642 4.35109 11.2603 4.31382L 1.93253 3.99888C 0.828593 3.96161 -0.0361117 3.03647 0.00116109 1.93253Z"/>
<path id="path19_fill" fill-rule="evenodd" d="M 13.1949 1.90382C 13.248 3.00711 12.3967 3.94459 11.2934 3.99773L 2.09626 4.44072C 0.992972 4.49386 0.0554994 3.64254 0.0023585 2.53925C -0.0507823 1.43596 0.800532 0.498488 1.90382 0.445347L 11.101 0.0023585C 12.2043 -0.0507823 13.1417 0.800532 13.1949 1.90382Z"/>
</defs>
</svg>
