<svg width="150" height="132" viewBox="0 0 150 132" version="1.1" xmlns="http://www.w3.org/2000/svg" xmlns:xlink="http://www.w3.org/1999/xlink">
<title>03</title>
<desc>Created using Figma</desc>
<g id="Canvas" transform="translate(-4992 -456)">
<g id="03">
<g id="Rectangle 18">
<use xlink:href="#path0_fill" transform="translate(4992 456)" fill="#F6F6F6"/>
</g>
<g id="Rectangle">
<use xlink:href="#path1_fill" transform="translate(4998.64 565.862)" fill="#FAFBFD"/>
</g>
<g id="Rectangle (Stroke)">
<use xlink:href="#path2_fill" transform="translate(4997.64 564.862)" fill="#555555"/>
</g>
<g id="Rectangle 2">
<use xlink:href="#path3_fill" transform="translate(5008.13 490.479)" fill="#FAFBFD"/>
</g>
<g id="Rectangle 2 (Stroke)">
<use xlink:href="#path4_fill" transform="translate(5007.13 489.479)" fill="#555555"/>
</g>
<g id="Rectangle 2">
<use xlink:href="#path5_fill" transform="translate(5013.41 495.154)" fill="#DFE3EE"/>
</g>
<g id="Rectangle 2 (Stroke)">
<use xlink:href="#path6_fill" transform="translate(5012.41 494.154)" fill="#555555"/>
</g>
<g id="Vector (Stroke)">
<use xlink:href="#path7_fill" transform="translate(5060.46 567.784)" fill="#3B5998"/>
</g>
<g id="Rectangle 8">
<use xlink:href="#path8_fill" transform="translate(5063.94 541.49)" fill="#8B9DC3"/>
</g>
<g id="Rectangle 8 (Stroke)">
<use xlink:href="#path9_fill" transform="translate(5063.94 541.49)" fill="#3B5998"/>
</g>
<g id="Rectangle 8">
<use xlink:href="#path10_fill" transform="translate(5071.43 536.842)" fill="#8B9DC3"/>
</g>
<g id="Rectangle 8 (Stroke)">
<use xlink:href="#path11_fill" transform="translate(5071.43 536.842)" fill="#3B5998"/>
</g>
<g id="Rectangle 8">
<use xlink:href="#path12_fill" transform="translate(5078.92 531.265)" fill="#8B9DC3"/>
</g>
<g id="Rectangle 8 (Stroke)">
<use xlink:href="#path13_fill" transform="translate(5078.92 531.265)" fill="#3B5998"/>
</g>
<g id="Rectangle 8">
<use xlink:href="#path14_fill" transform="translate(5086.41 525.687)" fill="#8B9DC3"/>
</g>
<g id="Rectangle 8 (Stroke)">
<use xlink:href="#path15_fill" transform="translate(5086.41 525.687)" fill="#3B5998"/>
</g>
<g id="Rectangle 8">
<use xlink:href="#path16_fill" transform="translate(5093.9 521.04)" fill="#8B9DC3"/>
</g>
<g id="Rectangle 8 (Stroke)">
<use xlink:href="#path17_fill" transform="translate(5093.9 521.04)" fill="#3B5998"/>
</g>
<g id="Rectangle 8">
<use xlink:href="#path18_fill" transform="translate(5101.4 515.462)" fill="#8B9DC3"/>
</g>
<g id="Rectangle 8 (Stroke)">
<use xlink:href="#path19_fill" transform="translate(5101.4 515.462)" fill="#3B5998"/>
</g>
<g id="Rectangle 8">
<use xlink:href="#path20_fill" transform="matrix(6.16803e-17 1 -1 6.07877e-17 5048.02 499.659)" fill="#8B9DC3"/>
</g>
<g id="Rectangle 8 (Stroke)">
<use xlink:href="#path21_fill" transform="matrix(6.16803e-17 1 -1 6.07877e-17 5048.02 499.659)" fill="#3B5998"/>
</g>
<g id="Rectangle 8">
<use xlink:href="#path22_fill" transform="matrix(6.16803e-17 1 -1 6.07877e-17 5034.91 504.307)" fill="#8B9DC3"/>
</g>
<g id="Rectangle 8 (Stroke)">
<use xlink:href="#path23_fill" transform="matrix(6.16803e-17 1 -1 6.07877e-17 5034.91 504.307)" fill="#3B5998"/>
</g>
<g id="Rectangle 8">
<use xlink:href="#path20_fill" transform="matrix(6.16803e-17 1 -1 6.07877e-17 5048.02 549.856)" fill="#8B9DC3"/>
</g>
<g id="Rectangle 8 (Stroke)">
<use xlink:href="#path21_fill" transform="matrix(6.16803e-17 1 -1 6.07877e-17 5048.02 549.856)" fill="#3B5998"/>
</g>
<g id="Rectangle 8">
<use xlink:href="#path20_fill" transform="matrix(6.16803e-17 1 -1 6.07877e-17 5048.02 546.138)" fill="#8B9DC3"/>
</g>
<g id="Rectangle 8 (Stroke)">
<use xlink:href="#path21_fill" transform="matrix(6.16803e-17 1 -1 6.07877e-17 5048.02 546.138)" fill="#3B5998"/>
</g>
<g id="Rectangle 8">
<use xlink:href="#path22_fill" transform="matrix(6.16803e-17 1 -1 6.07877e-17 5034.91 553.575)" fill="#8B9DC3"/>
</g>
<g id="Rectangle 8 (Stroke)">
<use xlink:href="#path23_fill" transform="matrix(6.16803e-17 1 -1 6.07877e-17 5034.91 553.575)" fill="#3B5998"/>
</g>
<g id="Vector 5 (Stroke)">
<use xlink:href="#path24_fill" transform="translate(5030.64 505.344)" fill="#3B5998"/>
</g>
<g id="Ellipse 3">
<use xlink:href="#path25_fill" transform="translate(5028.36 528.476)" fill="#8B9DC3"/>
</g>
<g id="Ellipse 3 (Stroke)">
<use xlink:href="#path26_fill" transform="translate(5028.36 528.476)" fill="#3B5998"/>
</g>
<g id="Ellipse 3">
<use xlink:href="#path25_fill" transform="translate(5047.09 516.392)" fill="#8B9DC3"/>
</g>
<g id="Ellipse 3 (Stroke)">
<use xlink:href="#path26_fill" transform="translate(5047.09 516.392)" fill="#3B5998"/>
</g>
<g id="Ellipse 3">
<use xlink:href="#path25_fill" transform="translate(5064.88 517.321)" fill="#8B9DC3"/>
</g>
<g id="Ellipse 3 (Stroke)">
<use xlink:href="#path26_fill" transform="translate(5064.88 517.321)" fill="#3B5998"/>
</g>
<g id="Ellipse 3">
<use xlink:href="#path25_fill" transform="translate(5084.54 503.378)" fill="#8B9DC3"/>
</g>
<g id="Ellipse 3 (Stroke)">
<use xlink:href="#path26_fill" transform="translate(5084.54 503.378)" fill="#3B5998"/>
</g>
<g id="Group">
<g id="Union">
<use xlink:href="#path27_fill" transform="matrix(0.415232 -0.909716 0.911977 0.41024 5047.18 539.51)" fill="#FFFFFF"/>
</g>
<g id="Union (Stroke)">
<use xlink:href="#path28_fill" transform="matrix(0.415232 -0.909716 0.911977 0.41024 5047.18 539.51)" fill="#3B5998"/>
</g>
<g id="Rectangle 10">
<use xlink:href="#path29_fill" transform="matrix(0.415232 -0.909716 0.911977 0.41024 5111.67 544.157)" fill="#8B9DC3"/>
</g>
<g id="Rectangle 10 (Stroke)">
<use xlink:href="#path30_fill" transform="matrix(0.415232 -0.909716 0.911977 0.41024 5111.67 544.157)" fill="#3B5998"/>
</g>
<g id="Mask Group">
<mask id="mask0_alpha" mask-type="alpha">
<g id="Ellipse 5">
<use xlink:href="#path31_fill" transform="matrix(0.854573 -0.524202 0.52708 0.84683 5053.84 519.654)" fill="#8B9DC3"/>
</g>
</mask>
<g id="Ellipse 5" mask="url(#mask0_alpha)">
<use xlink:href="#path31_fill" transform="matrix(0.854573 -0.524202 0.52708 0.84683 5053.84 519.654)" fill="#DFE3EE"/>
</g>
<g id="Vector 5 (Stroke)" mask="url(#mask0_alpha)">
<use xlink:href="#path32_fill" transform="matrix(1.00401 0.00723078 -0.00727793 0.995931 4999.07 484.909)" fill="#3B5998"/>
</g>
<g id="Ellipse 3" mask="url(#mask0_alpha)">
<use xlink:href="#path33_fill" transform="matrix(1.00401 0.00723078 -0.00727793 0.995931 5073.93 509.849)" fill="#8B9DC3"/>
</g>
<g id="Ellipse 3 (Stroke)" mask="url(#mask0_alpha)">
<use xlink:href="#path34_fill" transform="matrix(1.00401 0.00723078 -0.00727793 0.995931 5073.93 509.849)" fill="#3B5998"/>
</g>
<g id="Rectangle 8" mask="url(#mask0_alpha)">
<use xlink:href="#path35_fill" transform="matrix(1.00401 0.00723078 -0.00727793 0.995931 5070.02 532.605)" fill="#8B9DC3"/>
</g>
<g id="Rectangle 8 (Stroke)" mask="url(#mask0_alpha)">
<use xlink:href="#path36_fill" transform="matrix(1.00401 0.00723078 -0.00727793 0.995931 5070.02 532.605)" fill="#3B5998"/>
</g>
<g id="Rectangle 8" mask="url(#mask0_alpha)">
<use xlink:href="#path35_fill" transform="matrix(1.00401 0.00723078 -0.00727793 0.995931 5085.05 525.277)" fill="#8B9DC3"/>
</g>
<g id="Rectangle 8 (Stroke)" mask="url(#mask0_alpha)">
<use xlink:href="#path36_fill" transform="matrix(1.00401 0.00723078 -0.00727793 0.995931 5085.05 525.277)" fill="#3B5998"/>
</g>
<g id="Rectangle 8" mask="url(#mask0_alpha)">
<use xlink:href="#path35_fill" transform="matrix(1.00401 0.00723078 -0.00727793 0.995931 5100.11 515.159)" fill="#8B9DC3"/>
</g>
<g id="Rectangle 8 (Stroke)" mask="url(#mask0_alpha)">
<use xlink:href="#path36_fill" transform="matrix(1.00401 0.00723078 -0.00727793 0.995931 5100.11 515.159)" fill="#3B5998"/>
</g>
</g>
</g>
</g>
</g>
<defs>
<path id="path0_fill" d="M 0 0L 150 0L 150 132L 0 132L 0 0Z"/>
<path id="path1_fill" d="M 0.342394 2.17928C -0.419718 1.34328 0.1734 0 1.30464 0L 131.943 0C 133.074 0 133.667 1.34328 132.905 2.17928C 130.438 4.88574 126.945 6.42804 123.282 6.42804L 9.96489 6.42804C 6.30261 6.42804 2.80965 4.88574 0.342394 2.17928Z"/>
<path id="path2_fill" fill-rule="evenodd" d="M 0.605353 3.85298C -0.742063 2.37492 0.306572 0 2.30661 0L 132.945 0C 134.945 0 135.993 2.37493 134.646 3.85298C 131.989 6.7673 128.228 8.42804 124.284 8.42804L 10.9669 8.42804C 7.02332 8.42804 3.2621 6.76729 0.605353 3.85298ZM 2.30661 2C 2.04417 2 1.90657 2.31164 2.08337 2.50559C 4.36114 5.00419 7.58584 6.42804 10.9669 6.42804L 124.284 6.42804C 127.665 6.42804 130.89 5.00419 133.168 2.50559C 133.345 2.31164 133.207 2 132.945 2L 2.30661 2Z"/>
<path id="path3_fill" d="M 0 2C 0 0.89543 0.89543 0 2 0L 111.682 0C 112.787 0 113.682 0.89543 113.682 2L 113.682 75.3834L 0 75.3834L 0 2Z"/>
<path id="path4_fill" fill-rule="evenodd" d="M 0 3C 0 1.34315 1.34315 0 3 0L 112.682 0C 114.339 0 115.682 1.34315 115.682 3L 115.682 76.3834L 115.682 77.3834L 114.682 77.3834L 1 77.3834L 0 77.3834L 0 76.3834L 0 3ZM 3 2C 2.44772 2 2 2.44772 2 3L 2 75.3834L 113.682 75.3834L 113.682 3C 113.682 2.44772 113.235 2 112.682 2L 3 2Z"/>
<path id="path5_fill" d="M 0 2C 0 0.89543 0.89543 0 2 0L 101.134 0C 102.239 0 103.134 0.89543 103.134 2L 103.134 64.0335C 103.134 65.1381 102.239 66.0335 101.134 66.0335L 2 66.0335C 0.89543 66.0335 0 65.1381 0 64.0335L 0 2Z"/>
<path id="path6_fill" fill-rule="evenodd" d="M 0 3C 0 1.34315 1.34315 0 3 0L 102.134 0C 103.791 0 105.134 1.34315 105.134 3L 105.134 65.0335C 105.134 66.6904 103.791 68.0335 102.134 68.0335L 3 68.0335C 1.34315 68.0335 0 66.6904 0 65.0335L 0 3ZM 3 2C 2.44772 2 2 2.44772 2 3L 2 65.0335C 2 65.5858 2.44772 66.0335 3 66.0335L 102.134 66.0335C 102.687 66.0335 103.134 65.5858 103.134 65.0335L 103.134 3C 103.134 2.44772 102.687 2 102.134 2L 3 2Z"/>
<path id="path7_fill" fill-rule="evenodd" d="M 0 1C 0 0.447715 0.447715 0 1 0L 8.61788 0C 9.17017 0 9.61788 0.447715 9.61788 1C 9.61788 1.55228 9.17017 2 8.61788 2L 1 2C 0.447715 2 0 1.55228 0 1Z"/>
<path id="path8_fill" d="M 0 1C 0 0.447715 0.447715 0 1 0L 4.35073 0C 4.90301 0 5.35073 0.447715 5.35073 1L 5.35073 13.8732C 5.35073 14.4255 4.90301 14.8732 4.35073 14.8732L 1 14.8732C 0.447715 14.8732 0 14.4255 0 13.8732L 0 1Z"/>
<path id="path9_fill" fill-rule="evenodd" d="M 4.35073 1L 1 1L 1 13.8732L 4.35073 13.8732L 4.35073 1ZM 1 0C 0.447715 0 0 0.447715 0 1L 0 13.8732C 0 14.4255 0.447715 14.8732 1 14.8732L 4.35073 14.8732C 4.90301 14.8732 5.35073 14.4255 5.35073 13.8732L 5.35073 1C 5.35073 0.447715 4.90301 0 4.35073 0L 1 0Z"/>
<path id="path10_fill" d="M 0 1C 0 0.447715 0.447715 0 1 0L 4.39353 0C 4.94582 0 5.39353 0.447715 5.39353 1L 5.39353 18.5211C 5.39353 19.0734 4.94582 19.5211 4.39353 19.5211L 1 19.5211C 0.447715 19.5211 0 19.0734 0 18.5211L 0 1Z"/>
<path id="path11_fill" fill-rule="evenodd" d="M 4.39353 1L 1 1L 1 18.5211L 4.39353 18.5211L 4.39353 1ZM 1 0C 0.447715 0 0 0.447715 0 1L 0 18.5211C 0 19.0734 0.447715 19.5211 1 19.5211L 4.39353 19.5211C 4.94582 19.5211 5.39353 19.0734 5.39353 18.5211L 5.39353 1C 5.39353 0.447715 4.94582 0 4.39353 0L 1 0Z"/>
<path id="path12_fill" d="M 0 1C 0 0.447715 0.447715 0 1 0L 4.48576 0C 5.03805 0 5.48576 0.447715 5.48576 1L 5.48576 24.0986C 5.48576 24.6509 5.03805 25.0986 4.48576 25.0986L 1 25.0986C 0.447715 25.0986 0 24.6509 0 24.0986L 0 1Z"/>
<path id="path13_fill" fill-rule="evenodd" d="M 4.48576 1L 1 1L 1 24.0986L 4.48576 24.0986L 4.48576 1ZM 1 0C 0.447715 0 0 0.447715 0 1L 0 24.0986C 0 24.6509 0.447715 25.0986 1 25.0986L 4.48576 25.0986C 5.03805 25.0986 5.48576 24.6509 5.48576 24.0986L 5.48576 1C 5.48576 0.447715 5.03805 0 4.48576 0L 1 0Z"/>
<path id="path14_fill" d="M 0 1C 0 0.447715 0.447715 0 1 0L 4.38716 0C 4.93944 0 5.38716 0.447715 5.38716 1L 5.38716 29.6761C 5.38716 30.2283 4.93944 30.6761 4.38716 30.6761L 1 30.6761C 0.447715 30.6761 0 30.2283 0 29.6761L 0 1Z"/>
<path id="path15_fill" fill-rule="evenodd" d="M 4.38716 1L 1 1L 1 29.6761L 4.38716 29.6761L 4.38716 1ZM 1 0C 0.447715 0 0 0.447715 0 1L 0 29.6761C 0 30.2283 0.447715 30.6761 1 30.6761L 4.38716 30.6761C 4.93944 30.6761 5.38716 30.2283 5.38716 29.6761L 5.38716 1C 5.38716 0.447715 4.93944 0 4.38716 0L 1 0Z"/>
<path id="path16_fill" d="M 0 1C 0 0.447715 0.447715 0 1 0L 4.29263 0C 4.84491 0 5.29263 0.447715 5.29263 1L 5.29263 34.3239C 5.29263 34.8762 4.84491 35.3239 4.29263 35.3239L 1 35.3239C 0.447715 35.3239 0 34.8762 0 34.3239L 0 1Z"/>
<path id="path17_fill" fill-rule="evenodd" d="M 4.29263 1L 1 1L 1 34.3239L 4.29263 34.3239L 4.29263 1ZM 1 0C 0.447715 0 0 0.447715 0 1L 0 34.3239C 0 34.8762 0.447715 35.3239 1 35.3239L 4.29263 35.3239C 4.84491 35.3239 5.29263 34.8762 5.29263 34.3239L 5.29263 1C 5.29263 0.447715 4.84491 0 4.29263 0L 1 0Z"/>
<path id="path18_fill" d="M 0 1C 0 0.447715 0.447715 0 1 0L 4.61826 0C 5.17055 0 5.61826 0.447715 5.61826 1L 5.61826 39.9014C 5.61826 40.4537 5.17055 40.9014 4.61826 40.9014L 1 40.9014C 0.447715 40.9014 0 40.4537 0 39.9014L 0 1Z"/>
<path id="path19_fill" fill-rule="evenodd" d="M 4.61826 1L 1 1L 1 39.9014L 4.61826 39.9014L 4.61826 1ZM 1 0C 0.447715 0 0 0.447715 0 1L 0 39.9014C 0 40.4537 0.447715 40.9014 1 40.9014L 4.61826 40.9014C 5.17055 40.9014 5.61826 40.4537 5.61826 39.9014L 5.61826 1C 5.61826 0.447715 5.17055 0 4.61826 0L 1 0Z"/>
<path id="path20_fill" d="M 0 1C 0 0.447715 0.447715 0 1 0L 1.78873 0C 2.34102 0 2.78873 0.447715 2.78873 1L 2.78873 29.9004C 2.78873 30.4527 2.34102 30.9004 1.78873 30.9004L 1 30.9004C 0.447715 30.9004 0 30.4527 0 29.9004L 0 1Z"/>
<path id="path21_fill" fill-rule="evenodd" d="M 1.78873 1L 1 1L 1 29.9004L 1.78873 29.9004L 1.78873 1ZM 1 0C 0.447715 0 0 0.447715 0 1L 0 29.9004C 0 30.4527 0.447715 30.9004 1 30.9004L 1.78873 30.9004C 2.34102 30.9004 2.78873 30.4527 2.78873 29.9004L 2.78873 1C 2.78873 0.447715 2.34102 0 1.78873 0L 1 0Z"/>
<path id="path22_fill" d="M 0 1C 0 0.447715 0.447715 0 1 0L 1.78873 0C 2.34102 0 2.78873 0.447715 2.78873 1L 2.78873 16.7912C 2.78873 17.3435 2.34102 17.7912 1.78873 17.7912L 1 17.7912C 0.447715 17.7912 0 17.3435 0 16.7912L 0 1Z"/>
<path id="path23_fill" fill-rule="evenodd" d="M 1.78873 1L 1 1L 1 16.7912L 1.78873 16.7912L 1.78873 1ZM 1 0C 0.447715 0 0 0.447715 0 1L 0 16.7912C 0 17.3435 0.447715 17.7912 1 17.7912L 1.78873 17.7912C 2.34102 17.7912 2.78873 17.3435 2.78873 16.7912L 2.78873 1C 2.78873 0.447715 2.34102 0 1.78873 0L 1 0Z"/>
<path id="path24_fill" fill-rule="evenodd" d="M 57.2792 1.64415L 37.1471 15.5878L 36.8658 15.7826L 36.5242 15.7643L 19.515 14.8516L 1.05445 26.3056L 0 24.6062L 18.7275 12.9864L 18.9946 12.8208L 19.3084 12.8376L 36.2897 13.7488L 56.1405 0L 57.2792 1.64415Z"/>
<path id="path25_fill" d="M 5.61826 2.78873C 5.61826 4.32891 4.36057 5.57746 2.80913 5.57746C 1.25769 5.57746 0 4.32891 0 2.78873C 0 1.24856 1.25769 0 2.80913 0C 4.36057 0 5.61826 1.24856 5.61826 2.78873Z"/>
<path id="path26_fill" fill-rule="evenodd" d="M 2.80913 4.57746C 3.81517 4.57746 4.61826 3.76976 4.61826 2.78873C 4.61826 1.8077 3.81517 1 2.80913 1C 1.80309 1 1 1.8077 1 2.78873C 1 3.76976 1.80309 4.57746 2.80913 4.57746ZM 2.80913 5.57746C 4.36057 5.57746 5.61826 4.32891 5.61826 2.78873C 5.61826 1.24856 4.36057 0 2.80913 0C 1.25769 0 0 1.24856 0 2.78873C 0 4.32891 1.25769 5.57746 2.80913 5.57746Z"/>
<path id="path27_fill" fill-rule="evenodd" d="M 29.0933 53.0204C 42.4585 51.6869 52.8969 40.3562 52.897 26.5758C 52.8969 11.8981 41.0555 -0.000365369 26.4485 8.41478e-09C 11.8413 -7.88177e-05 -8.24068e-05 11.8983 4.30116e-10 26.5759C -5.14074e-05 40.3563 10.4384 51.6873 23.8037 53.0206L 23.8036 61.6557L 29.0934 61.656L 29.0933 53.0204ZM 47.0783 26.5758C 47.0782 38.024 37.842 47.305 26.4484 47.305C 15.0549 47.305 5.81854 38.024 5.81864 26.5759C 5.81854 15.1272 15.0548 5.84623 26.4485 5.84668C 37.842 5.84668 47.0782 15.1272 47.0783 26.5758Z"/>
<path id="path28_fill" fill-rule="evenodd" d="M 27.0933 51.2101L 28.8948 51.0303C 41.2398 49.7986 50.8969 39.326 50.897 26.5758C 50.8969 12.9936 39.9418 1.99966 26.4485 2L 26.4485 2C 12.9549 1.99993 1.99992 12.9938 2 26.5759C 1.99995 39.3262 11.6571 49.7989 24.0022 51.0305L 25.8037 51.2102L 25.8037 53.0206L 25.8036 59.6558L 27.0934 59.6559L 27.0933 53.0205L 27.0933 51.2101ZM 29.0934 59.656L 29.0934 61.656L 27.0934 61.6559L 23.8036 61.6557L 23.8037 53.0206C 10.4384 51.6873 -5.1407e-05 40.3563 4.30112e-10 26.5759C -8.24064e-05 11.8983 11.8413 -7.88093e-05 26.4485 8.41439e-09C 41.0555 -0.000365361 52.8969 11.8981 52.897 26.5758C 52.8969 40.3562 42.4585 51.6869 29.0933 53.0204L 29.0934 59.656ZM 49.0783 26.5759C 49.0782 39.1195 38.9557 49.305 26.4484 49.305C 13.9413 49.305 3.81855 39.1195 3.81864 26.5759M 26.4485 3.84668C 13.9411 3.84624 3.81855 14.0318 3.81864 26.5758L 26.4485 3.84668ZM 49.0783 26.5759C 49.0782 14.0317 38.9557 3.84672 26.4486 3.84668L 49.0783 26.5759ZM 26.4484 47.305C 37.842 47.305 47.0782 38.024 47.0783 26.5758C 47.0782 15.1272 37.842 5.84668 26.4485 5.84668C 15.0548 5.84623 5.81854 15.1272 5.81864 26.5759C 5.81854 38.024 15.0549 47.305 26.4484 47.305Z"/>
<path id="path29_fill" d="M 0 2C 0 0.89543 0.89543 0 2 0L 6.46352 0C 7.56809 0 8.46352 0.89543 8.46352 2L 8.46352 24.5211C 8.46352 25.6257 7.56809 26.5211 6.46352 26.5211L 2 26.5211C 0.89543 26.5211 0 25.6257 0 24.5211L 0 2Z"/>
<path id="path30_fill" fill-rule="evenodd" d="M 6.46352 2L 2 2L 2 24.5211L 6.46352 24.5211L 6.46352 2ZM 2 0C 0.895431 0 0 0.895431 0 2L 0 24.5211C 0 25.6257 0.895431 26.5211 2 26.5211L 6.46352 26.5211C 7.56809 26.5211 8.46352 25.6257 8.46352 24.5211L 8.46352 2C 8.46352 0.895431 7.56809 0 6.46352 0L 2 0Z"/>
<path id="path31_fill" d="M 41.3216 20.6983C 41.3216 32.1297 32.0715 41.3967 20.6608 41.3967C 9.25016 41.3967 0 32.1297 0 20.6983C 0 9.26696 9.25016 0 20.6608 0C 32.0715 0 41.3216 9.26696 41.3216 20.6983Z"/>
<path id="path32_fill" fill-rule="evenodd" d="M 127.171 3.28299L 82.3903 34.4534L 81.8262 34.846L 81.14 34.809L 43.2377 32.765L 2.11647 58.4063L 0 55.0121L 41.6568 29.0368L 42.1925 28.7028L 42.8228 28.7368L 80.6691 30.7778L 124.886 0L 127.171 3.28299Z"/>
<path id="path33_fill" d="M 12.4971 6.23408C 12.4971 9.67707 9.69949 12.4682 6.24853 12.4682C 2.79756 12.4682 0 9.67707 0 6.23408C 0 2.79109 2.79756 0 6.24853 0C 9.69949 0 12.4971 2.79109 12.4971 6.23408Z"/>
<path id="path34_fill" fill-rule="evenodd" d="M 6.24853 10.4682C 8.59929 10.4682 10.4971 8.56814 10.4971 6.23408C 10.4971 3.90002 8.59929 2 6.24853 2C 3.89776 2 2 3.90002 2 6.23408C 2 8.56814 3.89776 10.4682 6.24853 10.4682ZM 6.24853 12.4682C 9.69949 12.4682 12.4971 9.67707 12.4971 6.23408C 12.4971 2.79109 9.69949 0 6.24853 0C 2.79756 0 0 2.79109 0 6.23408C 0 9.67707 2.79756 12.4682 6.24853 12.4682Z"/>
<path id="path35_fill" d="M 0 1C 0 0.447715 0.447715 0 1 0L 10.1914 0C 10.7437 0 11.1914 0.447715 11.1914 1L 11.1914 30.7339C 11.1914 31.2862 10.7437 31.7339 10.1914 31.7339L 1 31.7339C 0.447715 31.7339 0 31.2862 0 30.7339L 0 1Z"/>
<path id="path36_fill" fill-rule="evenodd" d="M 2 2L 2 29.7339L 9.19139 29.7339L 9.19139 2L 2 2ZM 1 0C 0.447715 0 0 0.447715 0 1L 0 30.7339C 0 31.2862 0.447715 31.7339 1 31.7339L 10.1914 31.7339C 10.7437 31.7339 11.1914 31.2862 11.1914 30.7339L 11.1914 1C 11.1914 0.447715 10.7437 0 10.1914 0L 1 0Z"/>
</defs>
</svg>
