<svg width="150" height="150" viewBox="0 0 150 150" version="1.1" xmlns="http://www.w3.org/2000/svg" xmlns:xlink="http://www.w3.org/1999/xlink">
<title>04</title>
<desc>Created using Figma</desc>
<g id="Canvas" transform="translate(-5949 -522)">
<g id="04">
<g id="Rectangle 18">
<use xlink:href="#path0_fill" transform="translate(5949 522)" fill="#F6F6F6"/>
</g>
<g id="Rectangle 17">
<use xlink:href="#path1_fill" transform="translate(5993.82 633.3)" fill="#555555"/>
</g>
<g id="Rectangle 2">
<use xlink:href="#path2_fill" transform="translate(5958.05 567.713)" fill="#F7F7F7"/>
</g>
<g id="Rectangle 2 (Stroke)">
<use xlink:href="#path3_fill" transform="translate(5957.05 566.713)" fill="#3B5998"/>
</g>
<g id="Vector 10 (Stroke)">
<use xlink:href="#path4_fill" transform="translate(5993.75 535.23)" fill="#7C7C7C"/>
</g>
<g id="Rectangle 2">
<use xlink:href="#path5_fill" transform="translate(5960.63 588.757)" fill="#DFE3EE"/>
</g>
<g id="Rectangle 2">
<use xlink:href="#path6_fill" transform="translate(6039.07 589.753)" fill="#DFE3EE"/>
</g>
<g id="Rectangle 2">
<use xlink:href="#path7_fill" transform="translate(6039.07 605.676)" fill="#DFE3EE"/>
</g>
<g id="Rectangle 2">
<use xlink:href="#path7_fill" transform="translate(6039.07 612.643)" fill="#DFE3EE"/>
</g>
<g id="Rectangle 2">
<use xlink:href="#path8_fill" transform="translate(5984.46 620.605)" fill="#DFE3EE"/>
</g>
<g id="Rectangle 2">
<use xlink:href="#path9_fill" transform="translate(5984.46 623.591)" fill="#DFE3EE"/>
</g>
<g id="Rectangle 2">
<use xlink:href="#path8_fill" transform="translate(5984.46 627.572)" fill="#DFE3EE"/>
</g>
<g id="Rectangle 2">
<use xlink:href="#path10_fill" transform="translate(5984.46 630.558)" fill="#DFE3EE"/>
</g>
<g id="Rectangle 2">
<use xlink:href="#path11_fill" transform="translate(5981.48 617.619)" fill="#FFFFFF"/>
</g>
<g id="Rectangle 2 (Stroke)">
<use xlink:href="#path12_fill" transform="translate(5980.98 617.119)" fill="#8B9DC3"/>
</g>
<g id="Rectangle 2">
<use xlink:href="#path13_fill" transform="translate(5958 575.34)" fill="#3B5998"/>
</g>
<g id="Vector (Stroke)">
<use xlink:href="#path14_fill" transform="translate(5957 574.615)" fill="#3B5998"/>
</g>
<g id="Ellipse">
<use xlink:href="#path15_fill" transform="translate(5960.2 569.868)" fill="#8B9DC3"/>
</g>
<g id="Ellipse">
<use xlink:href="#path15_fill" transform="translate(5965.22 569.868)" fill="#DFE3EE"/>
</g>
<g id="Ellipse">
<use xlink:href="#path15_fill" transform="translate(5970.23 569.868)" fill="#3B5998"/>
</g>
<g id="Rectangle 2">
<use xlink:href="#path16_fill" transform="translate(5984.33 619.905)" fill="#DFE3EE"/>
</g>
<g id="Rectangle 2">
<use xlink:href="#path10_fill" transform="translate(5984.46 624.033)" fill="#DFE3EE"/>
</g>
<g id="Rectangle 2">
<use xlink:href="#path17_fill" transform="translate(5984.46 626.761)" fill="#DFE3EE"/>
</g>
<g id="Rectangle 2">
<use xlink:href="#path10_fill" transform="translate(5984.46 629.747)" fill="#DFE3EE"/>
</g>
<g id="Group">
<g id="Rectangle 2">
<use xlink:href="#path18_fill" transform="matrix(0.988868 -0.148799 0.149766 0.988721 5982.16 593.392)" fill="#ABBAD8"/>
</g>
<g id="Group">
<g id="Rectangle 2">
<use xlink:href="#path19_fill" transform="matrix(0.988868 -0.148799 0.149766 0.988721 5980.49 591.732)" fill="#FFFFFF"/>
</g>
<g id="Rectangle 2 (Stroke)">
<use xlink:href="#path20_fill" transform="matrix(0.988868 -0.148799 0.149766 0.988721 5979.92 591.312)" fill="#8B9DC3"/>
</g>
<g id="Rectangle 2">
<use xlink:href="#path21_fill" transform="matrix(0.988868 -0.148799 0.149766 0.988721 5983.73 593.257)" fill="#DFE3EE"/>
</g>
<g id="Rectangle 2">
<use xlink:href="#path22_fill" transform="matrix(0.988868 -0.148799 0.149766 0.988721 5985.97 608.018)" fill="#DFE3EE"/>
</g>
<g id="Rectangle 2">
<use xlink:href="#path23_fill" transform="matrix(0.988868 -0.148799 0.149766 0.988721 5986.42 610.97)" fill="#DFE3EE"/>
</g>
</g>
</g>
<g id="Vector 8 (Stroke)">
<use xlink:href="#path24_fill" transform="translate(5986.65 556.005)" fill="#8B9DC3"/>
</g>
<g id="Rectangle 17">
<use xlink:href="#path25_fill" transform="translate(5993.82 554.43)" fill="#555555"/>
</g>
<g id="Rectangle 17 (Stroke)">
<use xlink:href="#path26_fill" transform="translate(5993.82 546.958)" fill="#7C7C7C"/>
</g>
<g id="Rectangle 17 (Stroke)">
<use xlink:href="#path26_fill" transform="translate(6001.31 546.958)" fill="#7C7C7C"/>
</g>
<g id="Vector 9 (Stroke)">
<use xlink:href="#path27_fill" transform="translate(5994.3 547.434)" fill="#7C7C7C"/>
</g>
<g id="Rectangle 17 (Stroke)">
<use xlink:href="#path26_fill" transform="translate(6008.81 546.958)" fill="#7C7C7C"/>
</g>
<g id="Rectangle 17 (Stroke)">
<use xlink:href="#path26_fill" transform="translate(6016.31 546.958)" fill="#7C7C7C"/>
</g>
<g id="Vector 9 (Stroke)">
<use xlink:href="#path27_fill" transform="translate(6009.29 547.434)" fill="#7C7C7C"/>
</g>
<g id="Rectangle 17 (Stroke)">
<use xlink:href="#path26_fill" transform="translate(6023.81 546.958)" fill="#7C7C7C"/>
</g>
<g id="Rectangle 17 (Stroke)">
<use xlink:href="#path26_fill" transform="translate(6031.3 546.958)" fill="#7C7C7C"/>
</g>
<g id="Vector 9 (Stroke)">
<use xlink:href="#path27_fill" transform="translate(6024.28 547.434)" fill="#7C7C7C"/>
</g>
<g id="Rectangle 17 (Stroke)">
<use xlink:href="#path26_fill" transform="translate(6038.8 546.958)" fill="#7C7C7C"/>
</g>
<g id="Rectangle 17 (Stroke)">
<use xlink:href="#path26_fill" transform="translate(6046.3 546.958)" fill="#7C7C7C"/>
</g>
<g id="Vector 9 (Stroke)">
<use xlink:href="#path27_fill" transform="translate(6039.28 547.434)" fill="#7C7C7C"/>
</g>
<g id="Rectangle 17 (Stroke)">
<use xlink:href="#path26_fill" transform="translate(6053.79 546.958)" fill="#7C7C7C"/>
</g>
<g id="Rectangle 17 (Stroke)">
<use xlink:href="#path26_fill" transform="translate(6061.29 546.958)" fill="#7C7C7C"/>
</g>
<g id="Vector 9 (Stroke)">
<use xlink:href="#path27_fill" transform="translate(6054.27 547.434)" fill="#7C7C7C"/>
</g>
<g id="Rectangle 17 (Stroke)">
<use xlink:href="#path26_fill" transform="translate(6068.79 546.958)" fill="#7C7C7C"/>
</g>
<g id="Rectangle 17 (Stroke)">
<use xlink:href="#path26_fill" transform="translate(6076.28 546.958)" fill="#7C7C7C"/>
</g>
<g id="Vector 9 (Stroke)">
<use xlink:href="#path27_fill" transform="translate(6069.27 547.434)" fill="#7C7C7C"/>
</g>
<g id="Rectangle 17 (Stroke)">
<use xlink:href="#path26_fill" transform="translate(6083.78 546.958)" fill="#7C7C7C"/>
</g>
<g id="Vector 9 (Stroke)">
<use xlink:href="#path28_fill" transform="translate(6084.26 547.434)" fill="#7C7C7C"/>
</g>
<g id="Rectangle 17">
<use xlink:href="#path29_fill" transform="translate(6068.79 536.165)" fill="#FFFFFF"/>
</g>
<g id="Rectangle 17 (Stroke)">
<use xlink:href="#path30_fill" transform="translate(6068.79 536.165)" fill="#555555"/>
</g>
<g id="Ellipse 7">
<use xlink:href="#path31_fill" transform="translate(6071.28 534.504)" fill="#555555"/>
</g>
<g id="Ellipse 7">
<use xlink:href="#path31_fill" transform="translate(6090.44 545.297)" fill="#555555"/>
</g>
<g id="Ellipse 7">
<use xlink:href="#path31_fill" transform="translate(5992.15 545.297)" fill="#555555"/>
</g>
<g id="Ellipse 7">
<use xlink:href="#path32_fill" transform="translate(5999.65 554.43)" fill="#555555"/>
</g>
</g>
</g>
<defs>
<path id="path0_fill" d="M 0 0L 150 0L 150 150L 0 150L 0 0Z"/>
<path id="path1_fill" d="M 0 0.830219C 0 0.371702 0.371702 0 0.830219 0L 89.1309 0C 89.5895 0 89.9612 0.371702 89.9612 0.830219L 89.9612 0.830219C 89.9612 1.28874 89.5895 1.66044 89.1309 1.66044L 0.830219 1.66044C 0.371702 1.66044 0 1.28874 0 0.830219L 0 0.830219Z"/>
<path id="path2_fill" d="M 0 2C 0 0.89543 0.89543 0 2 0L 101.882 0C 102.987 0 103.882 0.89543 103.882 2L 103.882 69.8335C 103.882 70.9381 102.987 71.8335 101.882 71.8335L 2 71.8335C 0.89543 71.8335 0 70.9381 0 69.8335L 0 2Z"/>
<path id="path3_fill" fill-rule="evenodd" d="M 0 3C 0 1.34315 1.34315 0 3 0L 102.882 0C 104.539 0 105.882 1.34315 105.882 3L 105.882 70.8335C 105.882 72.4903 104.539 73.8335 102.882 73.8335L 3 73.8335C 1.34315 73.8335 0 72.4903 0 70.8335L 0 3ZM 3 2C 2.44772 2 2 2.44772 2 3L 2 70.8335C 2 71.3858 2.44772 71.8335 3 71.8335L 102.882 71.8335C 103.434 71.8335 103.882 71.3858 103.882 70.8335L 103.882 3C 103.882 2.44772 103.434 2 102.882 2L 3 2Z"/>
<path id="path4_fill" fill-rule="evenodd" d="M 79.3048 0L 79.4551 0.0878965L 98.6135 11.2958L 98.1085 12.159L 79.1004 1.03894L 0.140236 12.2225L 0 11.2324L 79.1325 0.0244106L 79.3048 0Z"/>
<path id="path5_fill" d="M 0 2C 0 0.89543 0.89543 0 2 0L 15.8711 0C 16.9757 0 17.8711 0.89543 17.8711 2L 17.8711 44.7764C 17.8711 45.8809 16.9757 46.7764 15.8711 46.7764L 2 46.7764C 0.89543 46.7764 0 45.8809 0 44.7764L 0 2Z"/>
<path id="path6_fill" d="M 0 2C 0 0.89543 0.89543 0 2 0L 17.8568 0C 18.9614 0 19.8568 0.89543 19.8568 2L 19.8568 10.9381C 19.8568 12.0427 18.9614 12.9381 17.8568 12.9381L 2 12.9381C 0.89543 12.9381 0 12.0427 0 10.9381L 0 2Z"/>
<path id="path7_fill" d="M 0 2C 0 0.89543 0.89543 0 2 0L 17.8568 0C 18.9614 0 19.8568 0.89543 19.8568 2L 19.8568 2.97621C 19.8568 4.08078 18.9614 4.97621 17.8568 4.97621L 2 4.97621C 0.89543 4.97621 0 4.08078 0 2.97621L 0 2Z"/>
<path id="path8_fill" d="M 0 0.995242C 0 0.445585 0.445585 0 0.995242 0L 42.6897 0C 43.2394 0 43.685 0.445585 43.685 0.995242L 43.685 0.995242C 43.685 1.5449 43.2394 1.99048 42.6897 1.99048L 0.995242 1.99048C 0.445585 1.99048 0 1.5449 0 0.995242L 0 0.995242Z"/>
<path id="path9_fill" d="M 0 0.995242C 0 0.445585 0.445585 0 0.995242 0L 28.79 0C 29.3396 0 29.7852 0.445585 29.7852 0.995242L 29.7852 0.995242C 29.7852 1.5449 29.3396 1.99048 28.79 1.99048L 0.995242 1.99048C 0.445585 1.99048 0 1.5449 0 0.995242L 0 0.995242Z"/>
<path id="path10_fill" d="M 0 0.995242C 0 0.445585 0.445585 0 0.995242 0L 19.8544 0C 20.4041 0 20.8497 0.445585 20.8497 0.995242L 20.8497 0.995242C 20.8497 1.5449 20.4041 1.99048 19.8544 1.99048L 0.995242 1.99048C 0.445585 1.99048 0 1.5449 0 0.995242L 0 0.995242Z"/>
<path id="path11_fill" d="M 0 2C 0 0.89543 0.89543 0 2 0L 50.6206 0C 51.7251 0 52.6206 0.89543 52.6206 2L 52.6206 14.9191C 52.6206 16.0237 51.7251 16.9191 50.6206 16.9191L 2 16.9191C 0.89543 16.9191 0 16.0237 0 14.9191L 0 2Z"/>
<path id="path12_fill" fill-rule="evenodd" d="M 0 2.5C 0 1.11929 1.11929 0 2.5 0L 51.1206 0C 52.5013 0 53.6206 1.11929 53.6206 2.5L 53.6206 15.4191C 53.6206 16.7998 52.5013 17.9191 51.1206 17.9191L 2.5 17.9191C 1.11929 17.9191 0 16.7998 0 15.4191L 0 2.5ZM 2.5 1C 1.67157 1 1 1.67157 1 2.5L 1 15.4191C 1 16.2475 1.67157 16.9191 2.5 16.9191L 51.1206 16.9191C 51.949 16.9191 52.6206 16.2475 52.6206 15.4191L 52.6206 2.5C 52.6206 1.67157 51.949 1 51.1206 1L 2.5 1Z"/>
<path id="path13_fill" d="M 0 0L 104.177 0L 104.177 11.4269L 0 11.4269L 0 0Z"/>
<path id="path14_fill" fill-rule="evenodd" d="M 0 1C 0 0.447715 0.447715 0 1 0L 104.605 0C 105.157 0 105.605 0.447715 105.605 1C 105.605 1.55228 105.157 2 104.605 2L 1 2C 0.447715 2 0 1.55228 0 1Z"/>
<path id="path15_fill" d="M 3.58214 1.79584C 3.58214 2.78765 2.78025 3.59168 1.79107 3.59168C 0.801888 3.59168 0 2.78765 0 1.79584C 0 0.804024 0.801888 0 1.79107 0C 2.78025 0 3.58214 0.804024 3.58214 1.79584Z"/>
<path id="path16_fill" d="M 0 1.14269C 0 0.511598 0.511598 0 1.14269 0L 44.6496 0C 45.2806 0 45.7922 0.511598 45.7922 1.14269L 45.7922 1.14269C 45.7922 1.77377 45.2806 2.28537 44.6496 2.28537L 1.14269 2.28537C 0.511598 2.28537 0 1.77377 0 1.14269L 0 1.14269Z"/>
<path id="path17_fill" d="M 0 0.995242C 0 0.445585 0.445585 0 0.995242 0L 31.7685 0C 32.3182 0 32.7637 0.445585 32.7637 0.995242L 32.7637 0.995242C 32.7637 1.5449 32.3182 1.99048 31.7685 1.99048L 0.995242 1.99048C 0.445585 1.99048 0 1.5449 0 0.995242L 0 0.995242Z"/>
<path id="path18_fill" d="M 0 2C 0 0.89543 0.89543 0 2 0L 50.6167 0C 51.7213 0 52.6167 0.89543 52.6167 2L 52.6167 22.8829C 52.6167 23.9875 51.7213 24.8829 50.6167 24.8829L 2 24.8829C 0.89543 24.8829 0 23.9875 0 22.8829L 0 2Z"/>
<path id="path19_fill" d="M 0 2C 0 0.89543 0.89543 0 2 0L 50.6167 0C 51.7212 0 52.6167 0.89543 52.6167 2L 52.6167 22.8829C 52.6167 23.9875 51.7212 24.8829 50.6167 24.8829L 2 24.8829C 0.89543 24.8829 0 23.9875 0 22.8829L 0 2Z"/>
<path id="path20_fill" fill-rule="evenodd" d="M 0 2.5C 0 1.11929 1.11929 0 2.5 0L 51.1167 0C 52.4974 0 53.6167 1.11929 53.6167 2.5L 53.6167 23.3829C 53.6167 24.7636 52.4974 25.8829 51.1167 25.8829L 2.5 25.8829C 1.11929 25.8829 0 24.7636 0 23.3829L 0 2.5ZM 2.5 1C 1.67157 1 1 1.67157 1 2.5L 1 23.3829C 1 24.2113 1.67157 24.8829 2.5 24.8829L 51.1167 24.8829C 51.9451 24.8829 52.6167 24.2113 52.6167 23.3829L 52.6167 2.5C 52.6167 1.67157 51.9451 1 51.1167 1L 2.5 1Z"/>
<path id="path21_fill" d="M 0 2C 0 0.89543 0.89543 0 2 0L 43.6673 0C 44.7719 0 45.6673 0.89543 45.6673 2L 45.6673 10.9391C 45.6673 12.0437 44.7719 12.9391 43.6673 12.9391L 2 12.9391C 0.89543 12.9391 0 12.0437 0 10.9391L 0 2Z"/>
<path id="path22_fill" d="M 0 0.995316C 0 0.445618 0.445618 0 0.995316 0L 31.766 0C 32.3157 0 32.7613 0.445618 32.7613 0.995316L 32.7613 0.995316C 32.7613 1.54501 32.3157 1.99063 31.766 1.99063L 0.995316 1.99063C 0.445618 1.99063 0 1.54501 0 0.995316L 0 0.995316Z"/>
<path id="path23_fill" d="M 0 0.995316C 0 0.445618 0.445618 0 0.995316 0L 19.8528 0C 20.4025 0 20.8481 0.445618 20.8481 0.995316L 20.8481 0.995316C 20.8481 1.54501 20.4025 1.99063 19.8528 1.99063L 0.995316 1.99063C 0.445618 1.99063 0 1.54501 0 0.995316L 0 0.995316Z"/>
<path id="path24_fill" fill-rule="evenodd" d="M 15.0914 0.000209371C 15.3674 0.0081221 15.5848 0.238302 15.5769 0.514331L 15.1693 14.7306L 40.298 27.8692C 40.5427 27.9972 40.6373 28.2993 40.5094 28.544C 40.3814 28.7887 40.0793 28.8834 39.8346 28.7554L 14.8116 15.672L 0.904686 34.8327C 0.742482 35.0562 0.429821 35.1058 0.206339 34.9436C -0.0171438 34.7814 -0.0668192 34.4688 0.0953852 34.2453L 14.1652 14.8601L 14.5773 0.485677C 14.5852 0.209648 14.8154 -0.00770335 15.0914 0.000209371Z"/>
<path id="path25_fill" d="M 0 0L 98.2909 0L 98.2909 2.49066L 0 2.49066L 0 0Z"/>
<path id="path26_fill" fill-rule="evenodd" d="M 7.32974 1L 1 1L 1 7.30219L 7.32974 7.30219L 7.32974 1ZM 1 0L 0 0L 0 1L 0 7.30219L 0 8.30219L 1 8.30219L 7.32974 8.30219L 8.32974 8.30219L 8.32974 7.30219L 8.32974 1L 8.32974 0L 7.32974 0L 1 0Z"/>
<path id="path27_fill" fill-rule="evenodd" d="M 6.66379 7.35003L 0 0.708277L 0.705935 0L 7.36972 6.64175L 6.66379 7.35003ZM 14.8665 0.708277L 8.2027 7.35003L 7.49676 6.64175L 14.1606 0L 14.8665 0.708277Z"/>
<path id="path28_fill" fill-rule="evenodd" d="M 6.66379 7.35003L 0 0.708277L 0.705935 0L 7.36972 6.64175L 6.66379 7.35003Z"/>
<path id="path29_fill" d="M 2.49892 0L 5.83081 0L 8.32974 98.796L 0 98.796L 2.49892 0Z"/>
<path id="path30_fill" fill-rule="evenodd" d="M 8.13668 91.1634L 8.14176 91.3644L 8.27915 96.796L 8.32974 98.796L 6.3291 98.796L 2.00064 98.796L 0 98.796L 0.0505875 96.796L 0.291564 87.2689L 0.324389 85.9711L 0.521532 78.177L 0.543185 77.3209L 0.728279 70.0032L 0.758009 68.8278L 0.945644 61.4096L 0.951022 61.1969L 0.980841 60.018L 0.986326 59.8012L 1.18707 51.8648L 1.21545 50.7427L 1.43051 42.24L 1.44457 41.6843L 2.02798 18.619L 2.02864 18.5928L 2.04443 17.9683L 2.49892 0L 5.83081 0L 6.18776 14.112L 6.18959 14.1844L 6.80568 38.5419L 6.82143 39.1646L 7.00613 46.4666L 7.00936 46.5945L 7.03933 47.7793L 7.23612 55.5595L 7.25723 56.394L 7.48995 65.5946L 7.50088 66.0267L 7.71966 74.6764L 7.72197 74.7678L 7.92277 82.7063L 7.93855 83.3302L 8.13668 91.1634ZM 5.66219 72.4297L 5.53963 67.5843L 3.04173 69.5681L 5.66219 72.4297ZM 2.79966 67.2063L 4.79952 65.618L 2.89251 63.5356L 2.79966 67.2063ZM 2.96584 60.6542L 5.43248 63.3478L 5.3056 58.3315L 2.96584 60.6542ZM 5.17806 53.2893L 5.0877 49.7168L 3.43062 51.3618L 5.17806 53.2893ZM 3.26762 48.7055L 4.94624 47.039L 3.36438 44.8798L 3.26762 48.7055ZM 3.83138 42.133L 4.93394 43.638L 4.8698 41.1021L 3.83138 42.133ZM 4.7085 34.725L 4.63664 31.8839L 4.07178 33.5662L 4.7085 34.725ZM 3.7881 28.1278L 4.2793 26.6649L 3.86276 25.1763L 3.7881 28.1278ZM 4.05168 18.4292L 4.32063 19.3904L 4.28462 17.9667L 4.05168 18.4292ZM 4.17754 13.7331L 4.16487 13.2322L 4.15086 13.7861L 4.17754 13.7331ZM 3.56866 36.8038L 3.49674 39.647L 4.55412 38.5973L 3.56866 36.8038ZM 3.1334 54.0117L 3.0385 57.7639L 4.87881 55.937L 3.1334 54.0117ZM 2.67514 72.1292L 2.57962 75.9058L 4.75146 74.3965L 2.67514 72.1292ZM 2.47317 80.1145L 2.35909 84.6245L 5.15335 82.7752L 2.47317 80.1145ZM 5.97085 84.6325L 2.78835 86.7388L 6.09328 89.4729L 5.97085 84.6325ZM 2.2512 88.8901L 2.11837 94.1416L 5.20443 91.3333L 2.2512 88.8901ZM 2.17302 96.796L 6.18614 93.1441L 6.27851 96.796L 2.17302 96.796ZM 5.8706 80.6691L 5.75589 76.134L 3.13618 77.9545L 5.8706 80.6691Z"/>
<path id="path31_fill" d="M 3.33189 1.66044C 3.33189 2.57747 2.58602 3.32088 1.66595 3.32088C 0.74587 3.32088 0 2.57747 0 1.66044C 0 0.743403 0.74587 0 1.66595 0C 2.58602 0 3.33189 0.743403 3.33189 1.66044Z"/>
<path id="path32_fill" d="M 4.16487 2.07555C 4.16487 3.22184 3.23253 4.15109 2.08243 4.15109C 0.932337 4.15109 0 3.22184 0 2.07555C 0 0.929254 0.932337 0 2.08243 0C 3.23253 0 4.16487 0.929254 4.16487 2.07555Z"/>
</defs>
</svg>
