<svg width="150" height="150" viewBox="0 0 150 150" version="1.1" xmlns="http://www.w3.org/2000/svg" xmlns:xlink="http://www.w3.org/1999/xlink">
<title>05</title>
<desc>Created using Figma</desc>
<g id="Canvas" transform="translate(-6121 -522)">
<g id="05">
<g id="Rectangle 18">
<use xlink:href="#path0_fill" transform="translate(6121 522)" fill="#F6F6F6"/>
</g>
<g id="Rectangle">
<use xlink:href="#path1_fill" transform="translate(6125.64 626.299)" fill="#FAFBFD"/>
</g>
<g id="Rectangle (Stroke)">
<use xlink:href="#path2_fill" transform="translate(6124.64 625.299)" fill="#555555"/>
</g>
<g id="Rectangle 2">
<use xlink:href="#path3_fill" transform="translate(6135.13 550.915)" fill="#FAFBFD"/>
</g>
<g id="Rectangle 2 (Stroke)">
<use xlink:href="#path4_fill" transform="translate(6134.13 549.915)" fill="#555555"/>
</g>
<g id="Rectangle 2">
<use xlink:href="#path5_fill" transform="translate(6140.41 555.59)" fill="#DFE3EE"/>
</g>
<g id="Rectangle 2 (Stroke)">
<use xlink:href="#path6_fill" transform="translate(6139.41 554.59)" fill="#555555"/>
</g>
<g id="Vector (Stroke)">
<use xlink:href="#path7_fill" transform="translate(6187.46 628.221)" fill="#3B5998"/>
</g>
<g id="Ellipse 6">
<use xlink:href="#path8_fill" transform="translate(6172.21 569.392)" fill="#3B5998"/>
</g>
<g id="Polygon">
<use xlink:href="#path9_fill" transform="matrix(6.16803e-17 1 -1 6.07877e-17 6205.7 576.595)" fill="#FFFFFF"/>
</g>
<g id="Rectangle 2">
<use xlink:href="#path10_fill" transform="translate(6224.65 541.504)" fill="#FAFBFD"/>
</g>
<g id="Rectangle 2 (Stroke)">
<use xlink:href="#path11_fill" transform="translate(6223.65 540.504)" fill="#555555"/>
</g>
<g id="Rectangle 2">
<use xlink:href="#path12_fill" transform="translate(6224.65 548.941)" fill="#DFE3EE"/>
</g>
<g id="Rectangle 2 (Stroke)">
<use xlink:href="#path13_fill" transform="translate(6223.65 547.941)" fill="#555555"/>
</g>
<g id="Vector (Stroke)">
<use xlink:href="#path7_fill" transform="translate(6235.82 544.223)" fill="#3B5998"/>
</g>
<g id="Ellipse 7">
<use xlink:href="#path14_fill" transform="translate(6237.76 590.772)" fill="#8B9DC3"/>
</g>
<g id="Ellipse 7 (Stroke)">
<use xlink:href="#path15_fill" transform="translate(6237.76 590.772)" fill="#3B5998"/>
</g>
<g id="Ellipse 6">
<use xlink:href="#path16_fill" transform="translate(6231.21 558.237)" fill="#3B5998"/>
</g>
<g id="Polygon">
<use xlink:href="#path17_fill" transform="matrix(6.16803e-17 1 -1 6.07877e-17 6246.97 563.533)" fill="#FAFBFD"/>
</g>
</g>
</g>
<defs>
<path id="path0_fill" d="M 0 0L 150 0L 150 150L 0 150L 0 0Z"/>
<path id="path1_fill" d="M 0.342394 2.17928C -0.419718 1.34328 0.1734 0 1.30464 0L 131.943 0C 133.074 0 133.667 1.34328 132.905 2.17928L 132.905 2.17928C 130.438 4.88574 126.945 6.42804 123.282 6.42804L 9.96489 6.42804C 6.30261 6.42804 2.80965 4.88574 0.342394 2.17928L 0.342394 2.17928Z"/>
<path id="path2_fill" fill-rule="evenodd" d="M 0.605353 3.85298C -0.742063 2.37492 0.306572 0 2.30661 0L 132.945 0C 134.945 0 135.993 2.37493 134.646 3.85298C 131.989 6.7673 128.228 8.42804 124.284 8.42804L 10.9669 8.42804C 7.02332 8.42804 3.2621 6.76729 0.605353 3.85298ZM 2.30661 2C 2.04417 2 1.90657 2.31164 2.08337 2.50559C 4.36114 5.00419 7.58584 6.42804 10.9669 6.42804L 124.284 6.42804C 127.665 6.42804 130.89 5.00419 133.168 2.50559C 133.345 2.31164 133.207 2 132.945 2L 2.30661 2Z"/>
<path id="path3_fill" d="M 0 2C 0 0.89543 0.89543 0 2 0L 111.682 0C 112.787 0 113.682 0.89543 113.682 2L 113.682 75.3834L 0 75.3834L 0 2Z"/>
<path id="path4_fill" fill-rule="evenodd" d="M 0 3C 0 1.34315 1.34315 0 3 0L 112.682 0C 114.339 0 115.682 1.34315 115.682 3L 115.682 76.3834L 115.682 77.3834L 114.682 77.3834L 1 77.3834L 0 77.3834L 0 76.3834L 0 3ZM 3 2C 2.44772 2 2 2.44772 2 3L 2 75.3834L 113.682 75.3834L 113.682 3C 113.682 2.44772 113.235 2 112.682 2L 3 2Z"/>
<path id="path5_fill" d="M 0 2C 0 0.89543 0.89543 0 2 0L 101.134 0C 102.239 0 103.134 0.89543 103.134 2L 103.134 64.0335C 103.134 65.1381 102.239 66.0335 101.134 66.0335L 2 66.0335C 0.89543 66.0335 0 65.1381 0 64.0335L 0 2Z"/>
<path id="path6_fill" fill-rule="evenodd" d="M 0 3C 0 1.34315 1.34315 0 3 0L 102.134 0C 103.791 0 105.134 1.34315 105.134 3L 105.134 65.0335C 105.134 66.6904 103.791 68.0335 102.134 68.0335L 3 68.0335C 1.34315 68.0335 0 66.6904 0 65.0335L 0 3ZM 3 2C 2.44772 2 2 2.44772 2 3L 2 65.0335C 2 65.5858 2.44772 66.0335 3 66.0335L 102.134 66.0335C 102.687 66.0335 103.134 65.5858 103.134 65.0335L 103.134 3C 103.134 2.44772 102.687 2 102.134 2L 3 2Z"/>
<path id="path7_fill" fill-rule="evenodd" d="M 0 1C 0 0.447715 0.447715 0 1 0L 8.61788 0C 9.17017 0 9.61788 0.447715 9.61788 1C 9.61788 1.55228 9.17017 2 8.61788 2L 1 2C 0.447715 2 0 1.55228 0 1Z"/>
<path id="path8_fill" d="M 39.3278 19.5211C 39.3278 30.3023 30.524 39.0423 19.6639 39.0423C 8.80384 39.0423 0 30.3023 0 19.5211C 0 8.73991 8.80384 0 19.6639 0C 30.524 0 39.3278 8.73991 39.3278 19.5211Z"/>
<path id="path9_fill" d="M 9.71503 1.50819C 10.8676 -0.50273 13.768 -0.50273 14.9206 1.50819L 24.234 17.7574C 25.3803 19.7574 23.9364 22.2492 21.6312 22.2492L 3.00445 22.2492C 0.699243 22.2492 -0.74465 19.7574 0.401657 17.7574L 9.71503 1.50819Z"/>
<path id="path10_fill" d="M 0 2C 0 0.89543 0.89543 0 2 0L 29.8368 0C 30.9414 0 31.8368 0.89543 31.8368 2L 31.8368 55.6338C 31.8368 56.7384 30.9414 57.6338 29.8368 57.6338L 2 57.6338C 0.89543 57.6338 0 56.7384 0 55.6338L 0 2Z"/>
<path id="path11_fill" fill-rule="evenodd" d="M 0 3C 0 1.34315 1.34315 0 3 0L 30.8368 0C 32.4937 0 33.8368 1.34315 33.8368 3L 33.8368 56.6338C 33.8368 58.2907 32.4937 59.6338 30.8368 59.6338L 3 59.6338C 1.34315 59.6338 0 58.2907 0 56.6338L 0 3ZM 3 2C 2.44772 2 2 2.44772 2 3L 2 56.6338C 2 57.1861 2.44772 57.6338 3 57.6338L 30.8368 57.6338C 31.3891 57.6338 31.8368 57.1861 31.8368 56.6338L 31.8368 3C 31.8368 2.44772 31.3891 2 30.8368 2L 3 2Z"/>
<path id="path12_fill" d="M 0 0L 31.8368 0L 31.8368 39.0423L 0 39.0423L 0 0Z"/>
<path id="path13_fill" fill-rule="evenodd" d="M 0 0L 1 0L 32.8368 0L 33.8368 0L 33.8368 1L 33.8368 40.0423L 33.8368 41.0423L 32.8368 41.0423L 1 41.0423L 0 41.0423L 0 40.0423L 0 1L 0 0ZM 2 2L 2 39.0423L 31.8368 39.0423L 31.8368 2L 2 2Z"/>
<path id="path14_fill" d="M 5.61826 2.78873C 5.61826 4.32891 4.36057 5.57746 2.80913 5.57746C 1.25769 5.57746 0 4.32891 0 2.78873C 0 1.24856 1.25769 0 2.80913 0C 4.36057 0 5.61826 1.24856 5.61826 2.78873Z"/>
<path id="path15_fill" fill-rule="evenodd" d="M 2.80913 4.57746C 3.81517 4.57746 4.61826 3.76976 4.61826 2.78873C 4.61826 1.8077 3.81517 1 2.80913 1C 1.80309 1 1 1.8077 1 2.78873C 1 3.76976 1.80309 4.57746 2.80913 4.57746ZM 2.80913 5.57746C 4.36057 5.57746 5.61826 4.32891 5.61826 2.78873C 5.61826 1.24856 4.36057 0 2.80913 0C 1.25769 0 0 1.24856 0 2.78873C 0 4.32891 1.25769 5.57746 2.80913 5.57746Z"/>
<path id="path16_fill" d="M 20.6003 10.2254C 20.6003 15.8727 15.9888 20.4507 10.3001 20.4507C 4.61153 20.4507 0 15.8727 0 10.2254C 0 4.57805 4.61153 0 10.3001 0C 15.9888 0 20.6003 4.57805 20.6003 10.2254Z"/>
<path id="path17_fill" d="M 3.65906 1.00546C 4.42744 -0.335154 6.36106 -0.335154 7.12944 1.00546L 10.5207 6.92231C 11.2849 8.25563 10.3223 9.91685 8.78553 9.91685L 2.00296 9.91685C 0.466162 9.91685 -0.496433 8.25563 0.267771 6.92231L 3.65906 1.00546Z"/>
</defs>
</svg>
