<svg width="311" height="39" viewBox="0 0 311 39" version="1.1" xmlns="http://www.w3.org/2000/svg" xmlns:xlink="http://www.w3.org/1999/xlink">
<title>logo</title>
<desc>Created using Figma</desc>
<g id="Canvas" transform="translate(-3479 103)">
<g id="logo">
<g id="Vector">
<use xlink:href="#path0_fill" transform="translate(3479 -101.686)" fill="#FFFFFF"/>
</g>
<g id="Vector">
<use xlink:href="#path1_fill" transform="translate(3501.11 -94.0876)" fill="#FFFFFF"/>
</g>
<g id="Vector">
<use xlink:href="#path2_fill" transform="translate(3522.12 -94.0885)" fill="#FFFFFF"/>
</g>
<g id="Vector">
<use xlink:href="#path3_fill" transform="translate(3540.05 -93.6217)" fill="#FFFFFF"/>
</g>
<g id="Vector">
<use xlink:href="#path4_fill" transform="translate(3563.32 -103)" fill="#FFFFFF"/>
</g>
<g id="Vector">
<use xlink:href="#path5_fill" transform="translate(3572.03 -99.5623)" fill="#FFFFFF"/>
</g>
<g id="Vector">
<use xlink:href="#path6_fill" transform="translate(3586.89 -94.0881)" fill="#FFFFFF"/>
</g>
<g id="Vector">
<use xlink:href="#path7_fill" transform="translate(3607.88 -103)" fill="#FFFFFF"/>
</g>
<g id="Vector">
<use xlink:href="#path8_fill" transform="translate(3631.57 -94.0878)" fill="#FFFFFF"/>
</g>
<g id="Vector">
<use xlink:href="#path9_fill" transform="translate(3654.34 -94.0885)" fill="#FFFFFF"/>
</g>
<g id="Vector">
<use xlink:href="#path10_fill" transform="translate(3674.15 -101.684)" fill="#FFFFFF"/>
</g>
<g id="Vector">
<use xlink:href="#path11_fill" transform="translate(3700 -101.515)" fill="#FFFFFF"/>
</g>
<g id="Vector">
<use xlink:href="#path12_fill" transform="translate(3707.34 -93.8758)" fill="#FFFFFF"/>
</g>
<g id="Vector">
<use xlink:href="#path13_fill" transform="translate(3730.09 -101.515)" fill="#FFFFFF"/>
</g>
<g id="Vector">
<use xlink:href="#path14_fill" transform="translate(3736.62 -98.1299)" fill="#FFFFFF"/>
</g>
<g id="Vector">
<use xlink:href="#path15_fill" transform="translate(3750 -93.8749)" fill="#FFFFFF"/>
</g>
<g id="Vector">
<use xlink:href="#path16_fill" transform="translate(3769.66 -101.515)" fill="#FFFFFF"/>
</g>
<g id="Vector">
<use xlink:href="#path17_fill" transform="translate(3776.84 -93.8762)" fill="#FFFFFF"/>
</g>
</g>
</g>
<defs>
<path id="path0_fill" d="M 6.20466e-07 0.595247C 2.79054 0.179143 5.608 -0.0193508 8.428 0.00148441C 12.5798 0.00148441 15.4859 0.637658 17.4788 2.2493C 19.1385 3.60647 20.0532 5.60278 20.0532 8.23379C 20.0532 11.8831 17.5205 14.3875 15.1121 15.2781L 15.1121 15.4054C 17.0639 16.2112 18.1431 18.1214 18.8489 20.7522C 19.7202 23.977 20.593 27.7113 21.1322 28.8151L 14.6556 28.8151C 14.1992 28.0092 13.5353 25.6745 12.7044 22.1528C 11.9576 18.5875 10.7532 17.6116 8.17883 17.569L 6.27017 17.569L 6.27017 28.8163L 6.20466e-07 28.8163L 6.20466e-07 0.595247ZM 6.26913 12.9025L 8.76035 12.9025C 11.9157 12.9025 13.7837 11.2908 13.7837 8.78577C 13.7837 6.15498 12.041 4.83959 9.13358 4.79696C 8.17453 4.77915 7.21587 4.85012 6.26934 5.00902L 6.26934 12.9027L 6.26913 12.9025Z"/>
<path id="path1_fill" d="M 6.02059 12.8997C 6.22805 15.5744 8.80226 16.8472 11.7499 16.8472C 13.6505 16.8708 15.5426 16.5841 17.3547 15.9979L 18.1846 20.3688C 16.11 21.2181 13.5762 21.6428 10.8358 21.6428C 3.94409 21.6428 -9.3703e-07 17.5688 -9.3703e-07 11.0758C -9.3703e-07 5.81399 3.19639 -7.50693e-07 10.2549 -7.50693e-07C 16.8145 -7.50693e-07 19.3061 5.21917 19.3061 10.3542C 19.3063 11.2068 19.2369 12.058 19.0987 12.8988L 6.02059 12.8988L 6.02059 12.8997ZM 13.4517 8.48741C 13.4517 6.91648 12.7878 4.28569 9.88086 4.28569C 7.22367 4.28569 6.14444 6.74747 5.97847 8.48741L 13.4517 8.48741Z"/>
<path id="path2_fill" d="M 1.1203 15.5752C 2.2821 16.2962 4.69116 17.1445 6.55896 17.1445C 8.46907 17.1445 9.25785 16.4659 9.25785 15.4043C 9.25785 14.3427 8.63546 13.8351 6.26851 13.0278C 2.07505 11.5858 0.456005 9.2506 0.497705 6.7901C 0.497705 2.92788 3.7358 -2.84746e-07 8.75973 -2.84746e-07C 11.1265 -2.84746e-07 13.2436 0.551352 14.489 1.18753L 13.3687 5.64371C 12.4559 5.13477 10.7115 4.45619 8.96802 4.45619C 7.43176 4.45619 6.55958 5.09236 6.55958 6.15265C 6.55958 7.12812 7.34794 7.63706 9.83937 8.52918C 13.7007 9.88635 15.3203 11.8816 15.3614 14.9361C 15.3614 18.7983 12.3721 21.6422 6.55958 21.6422C 3.90239 21.6422 1.53565 21.0472 2.68446e-06 20.1989L 1.1203 15.5752Z"/>
<path id="path3_fill" d="M 19.2229 14.0893C 19.2229 16.8054 19.3059 19.0116 19.3889 20.7516L 13.9086 20.7516L 13.6181 17.8239L 13.4936 17.8239C 12.7053 19.0962 10.7947 21.2189 7.1411 21.2189C 3.03084 21.2189 -2.12731e-06 18.5869 -2.12731e-06 12.1789L -2.12731e-06 5.69492e-07L 6.35253 5.69492e-07L 6.35253 11.161C 6.35253 14.174 7.30686 15.9991 9.50784 15.9991C 11.2505 15.9991 12.2478 14.7692 12.6632 13.7513C 12.8221 13.3034 12.8926 12.8277 12.8706 12.3517L 12.8706 5.69492e-07L 19.2225 5.69492e-07L 19.2225 14.0893L 19.2229 14.0893Z"/>
<path id="path4_fill" d="M 2.58316e-06 -7.24807e-07L 6.31083 -7.24807e-07L 6.31083 30.1305L 2.58316e-06 30.1305L 2.58316e-06 -7.24807e-07Z"/>
<path id="path5_fill" d="M 8.88463 5.82434e-07L 8.88463 5.9408L 13.4102 5.9408L 13.4102 10.6939L 8.88463 10.6939L 8.88463 18.2062C 8.88463 20.7104 9.46552 21.8555 11.3756 21.8555C 12.0022 21.8567 12.6275 21.7999 13.244 21.6859L 13.2855 26.5656C 12.4557 26.9049 10.9605 27.1169 9.17487 27.1169C 7.14173 27.1169 5.43845 26.3959 4.44201 25.3341C 3.28021 24.1042 2.69931 22.1094 2.69931 19.1804L 2.69931 10.6937L 3.74812e-06 10.6937L 3.74812e-06 5.94059L 2.69889 5.94059L 2.69889 1.44305L 8.88463 5.82434e-07Z"/>
<path id="path6_fill" d="M 12.87 21.2185L 12.4966 19.1389L 12.3721 19.1389C 11.0443 20.7929 8.96781 21.6857 6.55958 21.6857C 2.44931 21.6857 8.10404e-07 18.6301 8.10404e-07 15.3191C 8.10404e-07 9.92961 4.73286 7.34145 11.9157 7.38386L 11.9157 7.08698C 11.9157 5.98427 11.3348 4.41356 8.22032 4.41356C 6.14569 4.41356 3.94409 5.13456 2.61549 5.98279L 1.4537 1.8237C 2.86445 1.01788 5.64715 -5.1772e-07 9.34249 -5.1772e-07C 16.1097 -5.1772e-07 18.2688 4.07406 18.2688 8.95372L 18.2688 16.1684C 18.2688 18.1628 18.3518 20.0721 18.5593 21.2183L 12.87 21.2183L 12.87 21.2185ZM 12.1231 11.4155C 8.80164 11.3731 6.22722 12.1789 6.22722 14.6827C 6.22722 16.3367 7.30604 17.1445 8.71824 17.1445C 9.43953 17.1488 10.144 16.9218 10.7324 16.4954C 11.3209 16.069 11.7638 15.4648 11.9987 14.7677C 12.0831 14.4066 12.1249 14.0363 12.1231 13.665L 12.1231 11.4172L 12.1231 11.4155Z"/>
<path id="path7_fill" d="M 20.8417 -7.24807e-07L 20.8417 23.9341C 20.8417 26.268 20.9246 28.7298 21.0076 30.1303L 15.403 30.1303L 15.1126 27.0747L 15.0296 27.0747C 13.7433 29.4086 11.2932 30.5974 8.67767 30.5974C 3.86099 30.5974 0.000295027 26.3957 0.000295027 19.9451C -0.0411977 12.9434 4.23484 8.91195 9.0926 8.91195C 11.5836 8.91195 13.535 9.80259 14.4487 11.2459L 14.5317 11.2459L 14.5317 -7.24807e-07L 20.8425 -7.24807e-07L 20.8417 -7.24807e-07ZM 14.5308 18.1628C 14.5236 17.7798 14.4959 17.3975 14.4479 17.0177C 14.0744 15.2775 12.7037 13.8344 10.7525 13.8344C 7.88765 13.8344 6.39288 16.4652 6.39288 19.7337C 6.39288 23.2553 8.09532 25.4626 10.7108 25.4626C 12.5375 25.4626 13.9912 24.1903 14.3644 22.3645C 14.4857 21.8793 14.5415 21.3794 14.5304 20.8788L 14.5304 18.1628L 14.5308 18.1628Z"/>
<path id="path8_fill" d="M 21.2156 10.6086C 21.2156 18.2054 15.943 21.6857 10.5037 21.6857C 4.56669 21.6857 -1.01301e-07 17.6956 -1.01301e-07 10.9908C -1.01301e-07 4.2859 4.31793 9.83667e-07 10.8358 9.83667e-07C 17.0632 9.83667e-07 21.2156 4.37094 21.2156 10.6086ZM 6.51788 10.8207C 6.51788 14.3849 7.97137 17.0584 10.6703 17.0584C 13.1183 17.0584 14.6977 14.5561 14.6977 10.8207C 14.6977 7.72251 13.5347 4.58194 10.6703 4.58194C 7.63922 4.58278 6.51706 7.76598 6.51706 10.8215L 6.51788 10.8207Z"/>
<path id="path9_fill" d="M 1.12031 15.5752C 2.28335 16.2962 4.69178 17.1445 6.55958 17.1445C 8.46824 17.1445 9.25848 16.4659 9.25848 15.4043C 9.25848 14.3427 8.63609 13.8351 6.26913 13.0278C 2.0763 11.5858 0.456002 9.2506 0.497702 6.7901C 0.497702 2.92788 3.73705 -2.84746e-07 8.76077 -2.84746e-07C 11.1259 -2.84746e-07 13.2443 0.551352 14.4895 1.18753L 13.3691 5.64371C 12.4549 5.13477 10.712 4.45619 8.96802 4.45619C 7.43279 4.45619 6.55958 5.09236 6.55958 6.15265C 6.55958 7.12812 7.34794 7.63706 9.83937 8.52918C 13.7013 9.88635 15.3203 11.8816 15.362 14.9361C 15.362 18.7983 12.3727 21.6422 6.55958 21.6422C 3.90238 21.6422 1.53564 21.0472 -3.03902e-07 20.1989L 1.12031 15.5752Z"/>
<path id="path10_fill" d="M 0.000197333 0.593763C 2.54217 0.201046 5.10925 0.00257441 7.68009 -2.20031e-07C 12.8706 -2.20031e-07 16.5658 1.22994 19.0147 3.56533C 21.5063 5.89924 22.9587 9.20904 22.9587 13.8344C 22.9587 18.5035 21.548 22.3221 18.9312 24.9529C 16.3157 27.6275 11.9978 29.0695 6.55958 29.0695C 4.36855 29.0829 2.17852 28.9696 -5.26763e-06 28.7302L -5.26763e-06 0.593763L 0.000197333 0.593763ZM 3.61214 25.8872C 4.52498 26.0568 5.85378 26.0992 7.26577 26.0992C 14.9874 26.0992 19.1815 21.6857 19.1815 13.9623C 19.2229 7.21485 15.4861 2.92788 7.84689 2.92788C 6.42626 2.90515 5.00715 3.03307 3.61235 3.30959L 3.61235 25.8872L 3.61214 25.8872Z"/>
<path id="path11_fill" d="M 4.52733 2.33468C 4.56882 3.60703 3.65473 4.62597 2.20228 4.62597C 1.90869 4.63002 1.61733 4.5732 1.34581 4.45896C 1.07429 4.34471 0.828249 4.17541 0.622525 3.96126C 0.416802 3.74712 0.255676 3.49258 0.148869 3.21301C 0.0420622 2.93345 -0.00820866 2.63466 0.00109713 2.33468C -0.0067762 2.026 0.0468855 1.7189 0.158847 1.4321C 0.270809 1.1453 0.438715 0.884792 0.652333 0.666444C 0.86595 0.448096 1.12081 0.276476 1.4014 0.162035C 1.68199 0.0475932 1.98244 -0.00727468 2.28444 0.000773011C 3.65473 0.000773011 4.52733 1.01907 4.52733 2.33468ZM 0.458342 28.6453L 0.458342 8.10605L 4.11197 8.10605L 4.11197 28.6453L 0.458342 28.6453Z"/>
<path id="path12_fill" d="M 18.7659 0.466952C 18.6829 1.95136 18.5999 3.60647 18.5999 6.11066L 18.5999 18.0357C 18.5999 22.7462 17.6871 25.6314 15.7357 27.414C 13.7845 29.2818 10.9607 29.8758 8.42842 29.8758C 6.01998 29.8758 3.36298 29.282 1.74372 28.1793L 2.65657 25.3356C 3.98433 26.1849 6.06125 26.9473 8.55309 26.9473C 12.2889 26.9473 15.0295 24.9529 15.0295 19.7763L 15.0295 17.4835L 14.9465 17.4835C 13.8262 19.394 11.6667 20.9212 8.5535 20.9212C 3.57023 20.9212 1.23587e-05 16.5929 1.23587e-05 10.9066C 1.23587e-05 3.94618 4.44283 9.83667e-07 9.05122 9.83667e-07C 12.5393 9.83667e-07 14.4488 1.8678 15.3203 3.56533L 15.4033 3.56533L 15.5693 0.467165L 18.7669 0.467165L 18.7659 0.466952ZM 14.9874 8.57244C 15.0079 7.99923 14.9379 7.42638 14.7799 6.87598C 14.116 4.71129 12.33 2.92852 9.67277 2.92852C 6.18572 2.92852 3.69409 5.9425 3.69409 10.6956C 3.69409 14.7259 5.687 18.0794 9.63108 18.0794C 11.874 18.0794 13.9073 16.6362 14.6965 14.2598C 14.8941 13.6145 14.9921 12.9416 14.9869 12.2654L 14.9869 8.5735L 14.9874 8.57244Z"/>
<path id="path13_fill" d="M 4.52732 2.33468C 4.56881 3.60703 3.65472 4.62597 2.20227 4.62597C 1.90867 4.63002 1.61734 4.5732 1.34582 4.45896C 1.07431 4.34471 0.828237 4.17541 0.622514 3.96126C 0.41679 3.74712 0.255665 3.49258 0.148858 3.21301C 0.0420508 2.93345 -0.00822 2.63466 0.00108579 2.33468C -0.00678755 2.026 0.0468995 1.7189 0.158861 1.4321C 0.270823 1.1453 0.438729 0.884792 0.652347 0.666444C 0.865964 0.448096 1.12083 0.276476 1.40141 0.162035C 1.682 0.0475932 1.98243 -0.00727468 2.28443 0.000773011C 3.65472 0.000773011 4.52732 1.01907 4.52732 2.33468ZM 0.458331 28.6453L 0.458331 8.10605L 4.11199 8.10605L 4.11199 28.6453L 0.458331 28.6453Z"/>
<path id="path14_fill" d="M 6.68634 0L 6.68634 4.72083L 11.9173 4.72083L 11.9173 7.56241L 6.68634 7.56241L 6.68634 18.6399C 6.68634 21.1846 7.39171 22.6287 9.42485 22.6287C 10.1387 22.6396 10.8508 22.5541 11.5426 22.3742L 11.7086 25.1753C 11.0032 25.4722 9.88128 25.6842 8.46928 25.6842C 6.76684 25.6842 5.39675 25.1329 4.5252 24.1133C 3.48788 23.0106 3.11319 21.1856 3.11319 18.7665L 3.11319 7.56368L 4.05202e-07 7.56368L 4.05202e-07 4.72211L 3.11319 4.72211L 3.11319 0.975466L 6.68634 0Z"/>
<path id="path15_fill" d="M 12.7044 21.0054L 12.414 18.4172L 12.2895 18.4172C 11.1682 20.0289 9.00867 21.4728 6.14423 21.4728C 2.07524 21.4728 -5.26763e-06 18.5438 -5.26763e-06 15.5735C -5.26763e-06 10.6088 4.31794 7.8928 12.081 7.93542L 12.081 7.5113C 12.081 5.81484 11.6246 2.75824 7.51432 2.75824C 5.66621 2.76395 3.85572 3.29239 2.28333 4.28506L 1.45244 1.82518C 3.11215 0.722481 5.52144 5.1772e-07 8.05374 5.1772e-07C 14.199 5.1772e-07 15.6932 4.28569 15.6932 8.40237L 15.6932 16.0814C 15.6665 17.7292 15.7776 19.3763 16.0251 21.0048L 12.7036 21.0048L 12.7044 21.0054ZM 12.165 10.5234C 8.17926 10.4386 3.65426 11.1596 3.65426 15.1486C 3.65426 17.5677 5.23099 18.7139 7.09962 18.7139C 9.71511 18.7139 11.3758 17.0174 11.958 15.2762C 12.0868 14.8933 12.1567 14.4923 12.1655 14.0874L 12.1655 10.5236L 12.165 10.5234Z"/>
<path id="path16_fill" d="M 4.52733 2.33468C 4.56882 3.60703 3.65473 4.62597 2.20228 4.62597C 1.90868 4.63002 1.61732 4.5732 1.34581 4.45896C 1.07429 4.34471 0.828245 4.17541 0.622521 3.96126C 0.416798 3.74712 0.255673 3.49258 0.148865 3.21301C 0.0420583 2.93345 -0.00821251 2.63466 0.00109328 2.33468C -0.00678005 2.026 0.046907 1.7189 0.158869 1.4321C 0.270831 1.1453 0.438711 0.884792 0.652329 0.666444C 0.865947 0.448096 1.12081 0.276476 1.4014 0.162035C 1.68198 0.0475932 1.98243 -0.00727468 2.28443 0.000773011C 3.6539 0.000773011 4.52733 1.01907 4.52733 2.33468ZM 0.4573 28.6453L 0.4573 8.10605L 4.11093 8.10605L 4.11093 28.6453L 0.4573 28.6453Z"/>
<path id="path17_fill" d="M 0.913463 17.1871C 2.36075 18.1123 4.02373 18.6253 5.73015 18.6728C 8.38734 18.6728 9.63253 17.3156 9.63253 15.6172C 9.63253 13.8344 8.59522 12.8586 5.8957 11.84C 2.28376 10.5253 0.581324 8.48762 0.581324 6.02584C 0.581324 2.71604 3.19804 1.21664e-06 7.51474 1.21664e-06C 9.54933 1.21664e-06 11.335 0.593763 12.4563 1.27235L 11.542 3.98839C 10.3064 3.21059 8.8835 2.79942 7.43238 2.80086C 5.27289 2.80086 4.06918 4.07321 4.06918 5.60193C 4.06918 7.2984 5.27248 8.06181 7.88838 9.08096C 11.3765 10.4381 13.1621 12.2215 13.1621 15.2771C 13.1621 18.8838 10.4217 21.4308 5.64653 21.4308C 3.44741 21.4308 1.41201 20.8794 1.11431e-05 20.0312L 0.913463 17.1871Z"/>
</defs>
</svg>
